# DroneUAVDemo low-poly tall field tree asset
mtllib tree_lowpoly_03.mtl
s off

o trunk
v -0.09 0.00 -0.09
v 0.09 0.00 -0.09
v 0.09 0.00 0.09
v -0.09 0.00 0.09
v -0.09 2.04 -0.09
v 0.09 2.04 -0.09
v 0.09 2.04 0.09
v -0.09 2.04 0.09
vt 0.00 0.00
vt 1.00 0.00
vt 1.00 1.00
vt 0.00 1.00
usemtl bark
f 1/1 2/2 6/3 5/4
f 2/1 3/2 7/3 6/4
f 3/1 4/2 8/3 7/4
f 4/1 1/2 5/3 8/4
f 5/1 6/2 7/3 8/4
f 1/1 4/2 3/3 2/4

o lower_canopy
v 0.00 3.00 0.00
v 0.00 1.82 0.00
v 0.42 2.42 0.00
v 0.18 2.50 -0.28
v -0.20 2.52 -0.26
v -0.42 2.40 0.00
v -0.18 2.34 0.30
v 0.20 2.30 0.28
usemtl leaf
f 9 11 12
f 9 12 13
f 9 13 14
f 9 14 15
f 9 15 16
f 9 16 11
f 10 12 11
f 10 13 12
f 10 14 13
f 10 15 14
f 10 16 15
f 10 11 16

o upper_canopy
v 0.02 3.78 -0.02
v 0.02 2.54 -0.02
v 0.32 3.16 -0.02
v 0.12 3.20 -0.24
v -0.12 3.18 -0.22
v -0.32 3.12 -0.02
v -0.10 3.04 0.22
v 0.12 3.02 0.20
f 17 19 20
f 17 20 21
f 17 21 22
f 17 22 23
f 17 23 24
f 17 24 19
f 18 20 19
f 18 21 20
f 18 22 21
f 18 23 22
f 18 24 23
f 18 19 24
