# DroneUAVDemo low-poly oak asset
mtllib tree_lowpoly_01.mtl
s off

o trunk
v -0.12 0.00 -0.12
v 0.12 0.00 -0.12
v 0.12 0.00 0.12
v -0.12 0.00 0.12
v -0.12 1.78 -0.12
v 0.12 1.78 -0.12
v 0.12 1.78 0.12
v -0.12 1.78 0.12
vt 0.00 0.00
vt 1.00 0.00
vt 1.00 1.00
vt 0.00 1.00
usemtl bark
f 1/1 2/2 6/3 5/4
f 2/1 3/2 7/3 6/4
f 3/1 4/2 8/3 7/4
f 4/1 1/2 5/3 8/4
f 5/1 6/2 7/3 8/4
f 1/1 4/2 3/3 2/4

o canopy
v 0.00 3.26 0.00
v 0.00 1.54 0.00
v -0.96 2.34 0.02
v -0.66 2.72 -0.56
v -0.02 2.90 -0.90
v 0.72 2.64 -0.50
v 0.96 2.28 0.08
v 0.60 2.00 0.70
v -0.06 1.92 0.94
v -0.74 2.08 0.56
usemtl leaf
f 9 11 12
f 9 12 13
f 9 13 14
f 9 14 15
f 9 15 16
f 9 16 17
f 9 17 18
f 9 18 11
f 10 12 11
f 10 13 12
f 10 14 13
f 10 15 14
f 10 16 15
f 10 17 16
f 10 18 17
f 10 11 18
