# DroneUAVDemo low-poly pine asset
mtllib tree_lowpoly_02.mtl
s off

o trunk
v -0.10 0.00 -0.10
v 0.10 0.00 -0.10
v 0.10 0.00 0.10
v -0.10 0.00 0.10
v -0.10 2.22 -0.10
v 0.10 2.22 -0.10
v 0.10 2.22 0.10
v -0.10 2.22 0.10
vt 0.00 0.00
vt 1.00 0.00
vt 1.00 1.00
vt 0.00 1.00
usemtl bark
f 1/1 2/2 6/3 5/4
f 2/1 3/2 7/3 6/4
f 3/1 4/2 8/3 7/4
f 4/1 1/2 5/3 8/4
f 5/1 6/2 7/3 8/4
f 1/1 4/2 3/3 2/4

o lower_canopy
v 0.00 2.34 0.00
v 0.78 1.12 0.00
v 0.38 1.12 -0.66
v -0.38 1.12 -0.66
v -0.78 1.12 0.00
v -0.38 1.12 0.66
v 0.38 1.12 0.66
usemtl leaf
f 9 10 11
f 9 11 12
f 9 12 13
f 9 13 14
f 9 14 15
f 9 15 10

o middle_canopy
v 0.00 2.84 0.00
v 0.58 1.64 0.00
v 0.28 1.64 -0.48
v -0.28 1.64 -0.48
v -0.58 1.64 0.00
v -0.28 1.64 0.48
v 0.28 1.64 0.48
f 16 17 18
f 16 18 19
f 16 19 20
f 16 20 21
f 16 21 22
f 16 22 17

o upper_canopy
v 0.00 3.18 0.00
v 0.36 2.18 0.00
v 0.18 2.18 -0.30
v -0.18 2.18 -0.30
v -0.36 2.18 0.00
v -0.18 2.18 0.30
v 0.18 2.18 0.30
f 23 24 25
f 23 25 26
f 23 26 27
f 23 27 28
f 23 28 29
f 23 29 24
